<?xml version="1.0" encoding="iso-8859-1"?>
<!-- Generator: Adobe Illustrator 19.0.0, SVG Export Plug-In . SVG Version: 6.00 Build 0)  -->
<svg version="1.1" id="Layer_1" xmlns="http://www.w3.org/2000/svg" xmlns:xlink="http://www.w3.org/1999/xlink" x="0px" y="0px"
	 viewBox="0 0 511.996 511.996" style="enable-background:new 0 0 511.996 511.996;" xml:space="preserve">
<g>
	<g>
		<path d="M467.01,65.355c-29.995-29.841-69.299-44.757-108.612-44.757c-36.779,0-73.259,13.594-102.4,39.714
			c-29.15-26.121-65.621-39.714-102.4-39.714c-39.313,0-78.618,14.916-108.612,44.757c-59.981,59.674-59.981,156.433,0,216.115
			l211.012,209.929L467.01,281.47C526.991,221.788,526.991,125.037,467.01,65.355z M448.919,263.465L255.998,455.379L63.085,263.456
			c-49.903-49.655-49.903-130.44,0-180.096c24.175-24.055,56.32-37.299,90.513-37.299c31.206,0,60.399,11.503,83.695,31.718
			l18.705,17.417l18.714-17.408c23.296-20.215,52.489-31.718,83.695-31.718c34.193,0,66.33,13.244,90.513,37.299
			C498.831,133.016,498.822,213.809,448.919,263.465z"/>
	</g>
</g>
<g>
</g>
<g>
</g>
<g>
</g>
<g>
</g>
<g>
</g>
<g>
</g>
<g>
</g>
<g>
</g>
<g>
</g>
<g>
</g>
<g>
</g>
<g>
</g>
<g>
</g>
<g>
</g>
<g>
</g>
</svg>
